{
	"asset":{
		"generator":"Khronos glTF Blender I/O v4.3.47",
		"version":"2.0"
	},
	"scene":0,
	"scenes":[
		{
			"name":"Scene",
			"nodes":[
				0
			]
		}
	],
	"nodes":[
		{
			"mesh":0,
			"name":"Object_2",
			"rotation":[
				-0.70710688829422,
				0,
				0,
				0.7071066498756409
			],
			"scale":[
				0.07745819538831711,
				0.0774582028388977,
				0.0774582028388977
			],
			"translation":[
				0.260622501373291,
				0.03311503678560257,
				0.8958079218864441
			]
		}
	],
	"materials":[
		{
			"doubleSided":true,
			"name":"Object_2",
			"normalTexture":{
				"index":0
			},
			"pbrMetallicRoughness":{
				"baseColorTexture":{
					"index":1
				},
				"metallicRoughnessTexture":{
					"index":2
				}
			}
		}
	],
	"meshes":[
		{
			"name":"Object_0.001",
			"primitives":[
				{
					"attributes":{
						"POSITION":0,
						"NORMAL":1,
						"TEXCOORD_0":2
					},
					"indices":3,
					"material":0
				}
			]
		}
	],
	"textures":[
		{
			"sampler":0,
			"source":0
		},
		{
			"sampler":0,
			"source":1
		},
		{
			"sampler":0,
			"source":2
		}
	],
	"images":[
		{
			"mimeType":"image/png",
			"name":"Object_2.Normal - 1024px",
			"uri":"Object_2_Normal%20-%201024px.png"
		},
		{
			"mimeType":"image/png",
			"name":"Object_2.Base Color - 1024px",
			"uri":"Object_2_Base%20Color%20-%201024px.png"
		},
		{
			"mimeType":"image/png",
			"name":"Object_2-Object_2",
			"uri":"Object_2-Object_2.png"
		}
	],
	"accessors":[
		{
			"bufferView":0,
			"componentType":5126,
			"count":33819,
			"max":[
				1.5065699815750122,
				13.33975601196289,
				3.6204469203948975
			],
			"min":[
				0.322268009185791,
				11.678861618041992,
				-1.2204259634017944
			],
			"type":"VEC3"
		},
		{
			"bufferView":1,
			"componentType":5126,
			"count":33819,
			"type":"VEC3"
		},
		{
			"bufferView":2,
			"componentType":5126,
			"count":33819,
			"type":"VEC2"
		},
		{
			"bufferView":3,
			"componentType":5123,
			"count":192000,
			"type":"SCALAR"
		}
	],
	"bufferViews":[
		{
			"buffer":0,
			"byteLength":405828,
			"byteOffset":0,
			"target":34962
		},
		{
			"buffer":0,
			"byteLength":405828,
			"byteOffset":405828,
			"target":34962
		},
		{
			"buffer":0,
			"byteLength":270552,
			"byteOffset":811656,
			"target":34962
		},
		{
			"buffer":0,
			"byteLength":384000,
			"byteOffset":1082208,
			"target":34963
		}
	],
	"samplers":[
		{
			"magFilter":9729,
			"minFilter":9987
		}
	],
	"buffers":[
		{
			"byteLength":1466208,
			"uri":"GreenBrickThoth.bin"
		}
	]
}
